<svg height="152" viewBox="0 0 154 152" width="154" xmlns="http://www.w3.org/2000/svg"><g fill="#333" transform="translate(1.150025 .5)"><path d="m82.3891195 74.7199089c-.3524053-.515218-.9400001-.8235492-1.568772-.8235492h-5.3017419l3.0107285-7.444674c.3887826-.9609739-.0838699-2.0516268-1.0554475-2.4359164-.9718303-.385289-2.0742652.0829546-2.4627952 1.0439285l-4.0500084 10.0147669c-.2334211.5774339-.1624348 1.2318256.1902231 1.7465438.3524053.5149681.9402527.8232993 1.5687719.8232993h5.301742l-3.0107286 7.4446741c-.3887826.9609738.0838699 2.0516267 1.0554476 2.4359163.2308949.0914499.4688632.1346763.7030422.1346763.7520506 0 1.4634293-.445756 1.7597529-1.1783549l4.0500084-10.014767c.2334212-.5774338.1624349-1.2318255-.190223-1.7465437z"/><path d="m129.742625 22.6565264c-6.607315-6.7114652-15.414587-10.4942144-24.799569-10.6514775-9.36489-.1597436-18.3048696 3.4759124-25.1716451 10.2285537-7.0523171 6.9349575-11.0967767 16.5299938-11.0967767 26.3242135v7.1864793h-6.0931068c-3.2187002 0-5.8371188 2.6186546-5.8371188 5.837092v27.8373131c0 3.2186855 2.6186666 5.837092 5.8371188 5.837092h6.0931068v8.0816885c0 5.61236-2.3889721 11.006188-6.5547283 14.798115-4.219087 3.840544-9.6861148 5.659737-15.391271 5.12271-10.1373182-.954245-18.0779034-9.985961-18.0779034-20.561536 0-1.027419-.8329528-1.860368-1.860377-1.860368s-1.860377.832949-1.860377 1.860368c0 5.999812 2.1627503 11.787543 6.0896341 16.297076 3.9901366 4.581963 9.445258 7.411956 15.3602647 7.968578.7768934.073174 1.5493219.10939 2.3167894.10939 5.9137664 0 11.4993623-2.153563 15.9280518-6.184857 4.9384327-4.495643 7.7709187-10.892085 7.7709187-17.549476v-8.0816885h8.2097197v7.1864795c0 8.803511-3.6393935 17.431404-9.9850154 23.671328-6.1499103 6.047686-14.1368808 9.301346-22.5003916 9.161198-8.403695-.140644-16.2916935-3.529243-22.2101728-9.541457-5.9256728-6.019161-9.1887741-13.972856-9.1887741-22.396108v-25.8487032c0-.070694.0572997-.1279934.127994-.1279934h7.9534837c.0706943 0 .1279939.0572994.1279939.1279934v17.1498685c0 1.0274194.8329528 1.8603684 1.860377 1.8603684s1.860377-.832949 1.860377-1.8603684v-17.1498685c0-2.1223083-1.7264298-3.8487303-3.8487479-3.8487303h-2.1166129v-10.0700503c0-1.0274195-.8329528-1.8603685-1.860377-1.8603685s-1.860377.832949-1.860377 1.8603685v10.0700503h-2.1163649c-2.122318 0-3.8487479 1.726422-3.8487479 3.8487303v25.8487032c0 9.406271 3.6431143 18.287174 10.2581188 25.006329 6.6073149 6.711465 15.4145876 10.494462 24.7995695 10.651477.1944714.003225.3877025.004961.5816778.004961 9.1530548 0 17.8655724-3.620773 24.589719-10.233515 7.0523171-6.934957 11.0967767-16.529993 11.0967767-26.324213v-7.1864795h6.0931067c3.2187003 0 5.8371189-2.6186546 5.8371189-5.837092v-27.8370651c0-3.2186854-2.6186666-5.837092-5.8371189-5.837092h-6.0931067v-8.0816885c0-5.6123596 2.3889721-11.0061878 6.5547283-14.7981148 4.219087-3.8405446 9.6858669-5.6592408 15.3912709-5.1227105 10.137318.954245 18.077903 9.9859617 18.077903 20.5615361 0 1.0274195.832953 1.8603685 1.860377 1.8603685 1.027425 0 1.860377-.832949 1.860377-1.8603685 0-5.9998122-2.16275-11.7875425-6.089634-16.2970756-3.990136-4.5819634-9.445258-7.4119559-15.360264-7.9685781-6.7630908-.6364941-13.2414196 1.5210372-18.2448415 6.0754672-4.9384327 4.4956424-7.7709187 10.8920852-7.7709187 17.5494757v8.0816885h-8.2099677v-7.1864792c0-8.8035116 3.6393935-17.4314043 9.9850154-23.6713281 6.1499102-6.0476857 14.1378729-9.2993617 22.5003915-9.1611984 8.403695.1406439 16.291693 3.529243 22.210173 9.5414577 5.925673 6.0191601 9.188774 13.9728553 9.188774 22.3961075v25.8487033c0 .070694-.0573.1279933-.127994.1279933h-7.953484c-.070694 0-.127994-.0572993-.127994-.1279933v-17.1498685c0-1.0274195-.832953-1.8603684-1.860377-1.8603684s-1.860377.8329489-1.860377 1.8603684v17.1498685c0 2.1223083 1.72643 3.8487302 3.848748 3.8487302h2.116365v10.0700504c0 1.0274195.832953 1.8603684 1.860377 1.8603684s1.860377-.8329489 1.860377-1.8603684v-10.0700504h2.116365c2.122318 0 3.848748-1.7264219 3.848748-3.8487302v-25.8489513c.000744-9.4062709-3.64237-18.2866777-10.257375-25.0063285zm-39.3236565 36.8087539c1.1668285 0 2.1163649.9495321 2.1163649 2.1163551v27.8373132c0 1.1670711-.9495364 2.1163551-2.1163649 2.1163551h-27.8374411c-1.1670765 0-2.1163648-.949532-2.1163648-2.1163551v-27.8373132c0-1.1670711.9495364-2.1163551 2.1163648-2.1163551z"/><path d="m18.7397001 56.9111447-2.0700966-3.9083846c-.4782708-.9032289-1.6416672-1.2696399-2.598467-.8176598-.9567999.4514925-1.3446848 1.5497505-.8661557 2.4529794l2.0700966 3.9083846c.3393346.6406709 1.0231689 1.0109825 1.7338608 1.0109825.2910428 0 .5864757-.0621655.8646062-.1933227.9567999-.4514925 1.3446847-1.5497505.8661557-2.4529794z"/><path d="m27.6011836 52.1850576c-.9568182-.4519828-2.1202367-.0853258-2.5985166.8176645l-2.0701361 3.9084073c-.4782799.9032341-.0906459 2.0014985.8661722 2.4529936.2781358.1314017.5735744.1933238.8646227.1933238.7104472 0 1.3945527-.3705576 1.7338939-1.0109883l2.070136-3.9084073c.4785382-.9032341.090646-2.0014985-.8661721-2.4529936z"/><path d="m139.795019 96.3622085-2.070096-3.9083846c-.478271-.9032289-1.641409-1.2696399-2.598467-.8176598-.9568.4514925-1.344685 1.5497506-.866156 2.4529794l2.070097 3.9083847c.339334.6406708 1.023168 1.0109824 1.73386 1.0109824.291043 0 .586476-.0621655.864607-.1933226.956799-.4514926 1.344684-1.5497506.866155-2.4529795z"/><path d="m129.201204 91.6361214c-.9568-.4519827-2.119938-.0853258-2.598467.8176645l-2.070097 3.9084073c-.478529.9032341-.090644 2.0014985.866156 2.4529937.278131.1314016.573563.1933237.864606.1933237.710434 0 1.394526-.3705575 1.733861-1.0109883l2.070097-3.9084073c.478529-.9032341.090644-2.0014985-.866156-2.4529936z"/></g></svg>