<svg width="13" height="13" viewBox="0 0 13 13" xmlns="http://www.w3.org/2000/svg">
    <path d="M5.33333 0C2.39413 0 0 2.39413 0 5.33333C0 8.27253 2.39413 10.6667 5.33333 10.6667C6.61147 10.6667 7.78527 10.2128 8.70521 9.45937L11.8896 12.6437C11.9387 12.6949 11.9976 12.7358 12.0627 12.764C12.1279 12.7921 12.198 12.807 12.2689 12.8077C12.3399 12.8084 12.4103 12.795 12.476 12.7682C12.5416 12.7413 12.6013 12.7017 12.6515 12.6515C12.7017 12.6013 12.7413 12.5416 12.7682 12.476C12.795 12.4103 12.8084 12.3399 12.8077 12.2689C12.807 12.198 12.7921 12.1279 12.764 12.0627C12.7358 11.9976 12.6949 11.9387 12.6437 11.8896L9.45937 8.70521C10.2128 7.78527 10.6667 6.61147 10.6667 5.33333C10.6667 2.39413 8.27253 0 5.33333 0ZM5.33333 1.06667C7.69606 1.06667 9.6 2.9706 9.6 5.33333C9.6 7.69606 7.69606 9.6 5.33333 9.6C2.9706 9.6 1.06667 7.69606 1.06667 5.33333C1.06667 2.9706 2.9706 1.06667 5.33333 1.06667Z"/>
</svg>
