<svg width="108" height="122" viewBox="0 0 108 122" fill="none" xmlns="http://www.w3.org/2000/svg">
    <path d="M15.1738 0.609365C14.6582 0.601551 14.1504 0.789051 13.752 1.17187L13.4473 1.46874C-4.48242 19.4062 -4.48242 48.5937 13.4473 66.5312C13.8379 66.9141 14.3535 67.1172 14.8613 67.1172C15.377 67.1172 15.8926 66.9141 16.2832 66.5312C17.0566 65.75 17.0645 64.4766 16.2832 63.6953C-0.0996094 47.3203 -0.0996075 20.6797 16.2598 4.31249L16.5488 4.03124C17.3457 3.2578 17.3535 1.99218 16.5801 1.20312C16.1973 0.812489 15.6895 0.609365 15.1738 0.609365ZM92.8223 0.640615C92.3223 0.656239 91.8301 0.874989 91.4473 1.27343C90.6738 2.06249 90.752 3.39062 91.541 4.16405L91.6738 4.29687C108.057 20.6797 108.057 47.3203 91.6738 63.6953C90.8926 64.4844 90.8926 65.7422 91.6738 66.5312C92.0645 66.9141 92.5801 67.1172 93.0957 67.1172C93.6035 67.1172 94.1191 66.9141 94.5098 66.5312C112.439 48.5937 112.439 19.4062 94.5098 1.46874L94.2051 1.17187C93.8066 0.789051 93.3145 0.617177 92.8223 0.640615ZM27.666 9.09374C27.1504 9.08593 26.6348 9.27343 26.2363 9.65624C19.6191 16.1094 15.9785 24.7578 15.9785 34C15.9785 43.2422 19.6191 51.8906 26.2363 58.3437C26.627 58.7187 27.127 58.9062 27.6348 58.9062C28.1582 58.9062 28.6738 58.7031 29.0723 58.3047C29.8379 57.5156 29.8223 56.25 29.0332 55.4766C23.1895 49.7812 19.9785 42.1562 19.9785 34C19.9785 25.8437 23.1895 18.2187 29.0332 12.5234C29.8223 11.75 29.8379 10.4844 29.0723 9.6953C28.6816 9.29687 28.1738 9.09374 27.666 9.09374ZM80.291 9.09374C79.7832 9.09374 79.2754 9.29687 78.8848 9.6953C78.1191 10.4844 78.1348 11.75 78.9238 12.5234C84.7676 18.2187 87.9785 25.8437 87.9785 34C87.9785 42.1562 84.7676 49.7812 78.9238 55.4766C78.1348 56.25 78.1191 57.5156 78.8848 58.3047C79.2832 58.7031 79.7988 58.9062 80.3223 58.9062C80.8301 58.9062 81.3301 58.7187 81.7207 58.3437C88.3379 51.8906 91.9785 43.2422 91.9785 34C91.9785 24.7578 88.3379 16.1094 81.7207 9.65624C81.3223 9.27343 80.8066 9.08593 80.291 9.09374ZM40.166 17.5703C39.6582 17.5625 39.1426 17.75 38.7441 18.125C34.377 22.3203 31.9785 27.9531 31.9785 34C31.9785 39.875 34.2676 45.3984 38.4238 49.5547C38.8145 49.9453 39.3223 50.1406 39.8379 50.1406C40.3535 50.1406 40.8613 49.9453 41.252 49.5547C42.0332 48.7734 42.0332 47.5078 41.252 46.7266C37.8535 43.3281 35.9785 38.8047 35.9785 34C35.9785 29.0547 37.9473 24.4453 41.5098 21.0156C42.3066 20.25 42.3379 18.9844 41.5723 18.1875C41.1895 17.7891 40.6816 17.5781 40.166 17.5703ZM67.791 17.5703C67.2754 17.5781 66.7676 17.7812 66.3848 18.1875C65.6191 18.9766 65.6504 20.2422 66.4473 21.0078C70.0098 24.4453 71.9785 29.0547 71.9785 34C71.9785 38.8047 70.1035 43.3281 66.7051 46.7266C65.9238 47.5078 65.9238 48.7734 66.7051 49.5547C67.0957 49.9453 67.6035 50.1406 68.1191 50.1406C68.6348 50.1406 69.1426 49.9453 69.5332 49.5547C73.6895 45.3984 75.9785 39.875 75.9785 34C75.9785 27.9531 73.5801 22.3125 69.2129 18.125C68.8145 17.7422 68.2988 17.5625 67.791 17.5703ZM53.9785 26C49.5645 26 45.9785 29.5859 45.9785 34C45.9785 36.8281 47.4629 39.3047 49.6895 40.7266L24.5254 118H17.9785C16.8691 118 15.9785 118.891 15.9785 120C15.9785 121.109 16.8691 122 17.9785 122H89.9785C91.0879 122 91.9785 121.109 91.9785 120C91.9785 118.891 91.0879 118 89.9785 118H83.4316L58.2676 40.7266C60.4941 39.3047 61.9785 36.8281 61.9785 34C61.9785 29.5859 58.3926 26 53.9785 26ZM53.9785 30C56.1816 30 57.9785 31.7969 57.9785 34C57.9785 36.2031 56.1816 38 53.9785 38C51.7754 38 49.9785 36.2031 49.9785 34C49.9785 31.7969 51.7754 30 53.9785 30ZM53.4941 41.9453C53.6582 41.9609 53.8145 42 53.9785 42C54.1426 42 54.2988 41.9609 54.4629 41.9453L58.8145 55.3047L47.7285 59.6719L53.4941 41.9453ZM60.0488 59.1172L64.8223 73.75L49.252 63.375L60.0488 59.1172ZM45.7207 65.8281L62.7598 77.1797L38.877 86.8516L45.7207 65.8281ZM66.7988 79.8516L72.0098 95.8437C72.002 95.8984 71.9785 95.9453 71.9785 96V100C71.9785 101.109 72.8691 102 73.9785 102C73.9941 102 74.002 101.992 74.0098 101.992L79.2285 118H28.7285L30.0332 114H55.9785C57.0879 114 57.9785 113.109 57.9785 112C57.9785 110.891 57.0879 110 55.9785 110H31.3379L33.9473 101.992C33.9551 101.992 33.9629 102 33.9785 102C35.0879 102 35.9785 101.109 35.9785 100V96C35.9785 95.9453 35.9551 95.8984 35.9473 95.8437L37.2988 91.6875C37.4863 91.6641 37.6816 91.6484 37.8691 91.5703L66.7988 79.8516ZM43.9785 94C42.8691 94 41.9785 94.8906 41.9785 96V100C41.9785 101.109 42.8691 102 43.9785 102C45.0879 102 45.9785 101.109 45.9785 100V96C45.9785 94.8906 45.0879 94 43.9785 94ZM53.9785 94C52.8691 94 51.9785 94.8906 51.9785 96V100C51.9785 101.109 52.8691 102 53.9785 102C55.0879 102 55.9785 101.109 55.9785 100V96C55.9785 94.8906 55.0879 94 53.9785 94ZM63.9785 94C62.8691 94 61.9785 94.8906 61.9785 96V100C61.9785 101.109 62.8691 102 63.9785 102C65.0879 102 65.9785 101.109 65.9785 100V96C65.9785 94.8906 65.0879 94 63.9785 94ZM63.9785 110C62.8691 110 61.9785 110.891 61.9785 112C61.9785 113.109 62.8691 114 63.9785 114H71.9785C73.0879 114 73.9785 113.109 73.9785 112C73.9785 110.891 73.0879 110 71.9785 110H63.9785Z" fill="white"/>
</svg>
