<svg width="46" height="47" viewBox="0 0 46 47" fill="none" xmlns="http://www.w3.org/2000/svg">
    <path d="M25.3893 0C24.9738 0.0116351 24.6677 0.319966 24.6593 0.733011L24.634 2.2223C24.6256 2.63244 24.9429 2.96986 25.3387 2.97859H25.3528C25.743 2.97859 26.0631 2.6528 26.0715 2.24557L26.0968 0.756282C26.1024 0.346144 25.7852 0.00872651 25.3893 0ZM21.4811 0.482857C21.3884 0.468313 21.293 0.471222 21.1947 0.494492C20.8101 0.596299 20.577 1.00062 20.6725 1.39912L21.0206 2.84478C21.0992 3.1822 21.394 3.40909 21.7169 3.40909C21.7731 3.40909 21.832 3.40036 21.8882 3.38582C22.2756 3.28692 22.5115 2.8826 22.416 2.48409L22.0679 1.03843C21.9949 0.738829 21.7562 0.529398 21.4811 0.482857ZM29.2778 0.622478C28.9999 0.660292 28.7584 0.860998 28.6742 1.15769L28.2783 2.58881C28.1716 2.98149 28.3906 3.39454 28.7725 3.50798C28.8398 3.52834 28.9044 3.53707 28.9718 3.53707C29.2834 3.53707 29.5698 3.32764 29.6597 2.99895L30.0555 1.56783C30.165 1.17224 29.946 0.75919 29.5642 0.645749C29.4688 0.619569 29.3733 0.610843 29.2778 0.622478ZM33.1664 2.29212C32.8884 2.25139 32.6021 2.38229 32.4476 2.64699L31.7092 3.92103C31.5043 4.2759 31.6138 4.73258 31.9535 4.94492C32.0714 5.01473 32.1978 5.04963 32.3241 5.04963C32.5684 5.04963 32.8042 4.92165 32.939 4.68895L33.6802 3.4149C33.8851 3.06003 33.7756 2.60335 33.4359 2.39101C33.3517 2.33866 33.259 2.30666 33.1664 2.29212ZM36.2351 4.88674C36.0498 4.88383 35.8645 4.95074 35.7241 5.09618L34.6909 6.1317C34.4045 6.41676 34.3961 6.88798 34.6713 7.18177C34.8116 7.33302 34.9998 7.41156 35.1879 7.41156C35.3676 7.41156 35.5472 7.34175 35.6876 7.20213L36.7236 6.1666C37.0072 5.88155 37.0156 5.40741 36.7377 5.11363C36.6001 4.96528 36.4204 4.88965 36.2351 4.88674ZM23 5.57321C17.4381 5.57321 12.23 8.3511 8.9928 13.0197H6.46875C2.90308 13.0197 0 16.0244 0 19.7215V28.6573C0 32.3543 2.90308 35.3591 6.46875 35.3591H10.1523C13.4204 39.1492 18.0839 41.3162 23 41.3162C27.9161 41.3162 32.5796 39.1492 35.8477 35.3591H39.5312C43.0969 35.3591 46 32.3543 46 28.6573V19.7215C46 16.0244 43.0969 13.0197 39.5312 13.0197H37.0072C33.77 8.3511 28.5619 5.57321 23 5.57321ZM23 7.06251C27.7421 7.06251 32.1978 9.27027 35.1851 13.0197H30.1875C26.6218 13.0197 23.7188 16.0244 23.7188 19.7215V28.6573C23.7188 30.3705 22.9803 31.4002 20.9897 32.4619C20.4731 32.7383 20.1868 33.32 20.2598 33.9512C20.3328 34.6261 20.7876 35.1816 21.3884 35.3358L33.8486 35.3504C30.9315 38.2126 27.0598 39.827 23 39.827C18.3927 39.827 14.0269 37.7501 11.0255 34.1287C10.8879 33.9658 10.6886 33.8698 10.478 33.8698H6.46875C3.69482 33.8698 1.4375 31.5311 1.4375 28.6573V19.7215C1.4375 16.8476 3.69482 14.509 6.46875 14.509H9.36621C9.60205 14.509 9.82385 14.3868 9.95862 14.1832C12.9094 9.72404 17.7834 7.06251 23 7.06251ZM23.2386 8.5518C22.4806 8.5518 21.7169 8.60998 20.9757 8.72633C20.5826 8.78741 20.3131 9.16555 20.3721 9.57569C20.4254 9.9422 20.7343 10.2069 21.0824 10.2069C21.1189 10.2069 21.1554 10.204 21.1919 10.2011C21.8629 10.0935 22.5508 10.0411 23.2386 10.0411C23.6345 10.0411 23.9574 9.70949 23.9574 9.29645C23.9574 8.8834 23.6345 8.5518 23.2386 8.5518ZM18.2383 9.49134C18.1456 9.48552 18.0502 9.50006 17.9575 9.53497C15.4194 10.5152 13.1733 12.2052 11.4607 14.4159C11.2136 14.7388 11.2614 15.2071 11.5702 15.4631C11.705 15.5736 11.8622 15.6289 12.0194 15.6289C12.2328 15.6289 12.4406 15.5329 12.5809 15.3496C14.1307 13.3455 16.1663 11.8184 18.4601 10.9283C18.8335 10.7857 19.0188 10.3582 18.8812 9.97128C18.7773 9.68331 18.519 9.50297 18.2383 9.49134ZM30.1875 14.509H39.5312C42.3052 14.509 44.5625 16.8476 44.5625 19.7215V28.6573C44.5625 31.5311 42.3052 33.8698 39.5312 33.8698H21.7169C21.6945 33.8378 21.672 33.7796 21.6495 33.7883C23.3818 32.8604 25.1562 31.5282 25.1562 28.6573V19.7215C25.1562 16.8476 27.4136 14.509 30.1875 14.509ZM31.625 18.9681C30.8333 18.9681 30.1875 19.6371 30.1875 20.4574V28.6485C30.1875 29.0616 30.5104 29.3932 30.9062 29.3932C31.3021 29.3932 31.625 29.0616 31.625 28.6485V24.9253H35.1317C35.5304 24.9253 35.8505 24.5937 35.8505 24.1807C35.8505 23.7705 35.5304 23.436 35.1317 23.436H31.625V20.4574H36.6562C37.0521 20.4574 37.375 20.1258 37.375 19.7128C37.375 19.3026 37.0521 18.9681 36.6562 18.9681H31.625ZM5.14917 18.9798C5.05652 18.9652 4.96106 18.9681 4.8656 18.9885C4.47815 19.0845 4.2395 19.4859 4.32935 19.8873L6.32275 28.5991C6.39856 29.0441 6.75232 29.3728 7.1875 29.4019C7.20715 29.4019 7.22681 29.4019 7.24646 29.4019C7.65637 29.4019 8.01855 29.1285 8.12805 28.762L10.0625 23.4942L11.9829 28.7154C12.1121 29.1459 12.5079 29.4194 12.9375 29.4019C13.3699 29.3728 13.7264 29.0441 13.7938 28.6427L15.7928 19.8873C15.8855 19.4859 15.6469 19.0845 15.2594 18.9885C14.8719 18.8983 14.4873 19.1456 14.3947 19.5441L12.769 26.6706L11.062 22.0369C10.9272 21.5802 10.5229 21.2748 10.0625 21.2748C9.59924 21.2748 9.19775 21.5831 9.07703 21.9933L7.35596 26.6706L5.73035 19.5441C5.66296 19.2445 5.42432 19.0292 5.14917 18.9798ZM17.9126 19.7128C17.5139 19.7128 17.1938 20.0473 17.1938 20.4574C17.1938 20.8705 17.5139 21.2021 17.9126 21.2021C18.3085 21.2021 18.6313 20.8705 18.6313 20.4574C18.6313 20.0473 18.3085 19.7128 17.9126 19.7128ZM38.7255 19.7128C38.3296 19.7128 38.0067 20.0473 38.0067 20.4574C38.0067 20.8705 38.3296 21.2021 38.7255 21.2021C39.1241 21.2021 39.4442 20.8705 39.4442 20.4574C39.4442 20.0473 39.1241 19.7128 38.7255 19.7128ZM17.9126 22.6914C17.5139 22.6914 17.1938 23.0259 17.1938 23.436V28.6485C17.1938 29.0616 17.5139 29.3932 17.9126 29.3932C18.3085 29.3932 18.6313 29.0616 18.6313 28.6485V23.436C18.6313 23.0259 18.3085 22.6914 17.9126 22.6914ZM38.7255 22.6914C38.3296 22.6914 38.0067 23.0259 38.0067 23.436V28.6485C38.0067 29.0616 38.3296 29.3932 38.7255 29.3932C39.1241 29.3932 39.4442 29.0616 39.4442 28.6485V23.436C39.4442 23.0259 39.1241 22.6914 38.7255 22.6914ZM11.3035 39.5913C11.121 39.5855 10.9357 39.6553 10.7925 39.8008L9.75647 40.8334C9.47009 41.1185 9.46448 41.5926 9.73962 41.8864C9.88 42.0376 10.0681 42.1133 10.2562 42.1133C10.4359 42.1133 10.6156 42.0434 10.756 41.9038L11.7892 40.8712C12.0756 40.5832 12.084 40.112 11.806 39.8153C11.6685 39.6699 11.486 39.5943 11.3035 39.5913ZM14.2543 41.9562C13.9791 41.9155 13.6927 42.0464 13.5383 42.3081L12.7971 43.5851C12.5922 43.94 12.7017 44.3966 13.0414 44.609C13.1593 44.6817 13.2856 44.7137 13.412 44.7137C13.6562 44.7137 13.8949 44.5857 14.0297 44.353L14.7681 43.0761C14.973 42.7241 14.8635 42.2674 14.5238 42.0551C14.4396 42.0027 14.3469 41.9707 14.2543 41.9562ZM17.4213 43.4687C17.1433 43.5037 16.899 43.7044 16.8176 44.0011L16.4218 45.4322C16.3123 45.8278 16.5341 46.2408 16.9131 46.3543C16.9805 46.3717 17.0479 46.3804 17.1152 46.3804C17.4269 46.3804 17.7133 46.1681 17.8031 45.8423L18.2018 44.4112C18.3085 44.0156 18.0895 43.6026 17.7076 43.492C17.6122 43.4629 17.5167 43.4542 17.4213 43.4687ZM24.8755 43.5996C24.7828 43.5851 24.6846 43.588 24.5891 43.6113C24.2045 43.7131 23.9686 44.1174 24.0669 44.5159L24.415 45.9587C24.4937 46.299 24.7885 46.5259 25.1113 46.5259C25.1675 46.5259 25.2264 46.5171 25.2854 46.5055C25.67 46.4037 25.9031 45.9994 25.8076 45.6009L25.4595 44.1552C25.3893 43.8556 25.1506 43.6462 24.8755 43.5996ZM21.1273 44.0214C20.7371 44.0214 20.417 44.3443 20.4086 44.7515L20.3833 46.2408C20.3749 46.6509 20.6921 46.9913 21.0908 47H21.1021C21.4923 47 21.8124 46.6742 21.8208 46.2699L21.8461 44.7806C21.8545 44.3676 21.5372 44.0301 21.1385 44.0214H21.1273Z" fill="#7C0905"/>
</svg>
